# xmcd
#
# Track frame offsets:
#	150
#	14800
#	29242
#	41140
#	54705
#	67460
#	78677
#	89810
#	102760
#	115652
#	129027
#	141295
#	143612
#	156720
#	169797
#	172075
#	187287
#	201015
#	214782
#	225657
#	236490
#	247875
#	259682
#
# Disc length: 3717 seconds
#
# Revision: 0
# Processed by: cddbd v1.4PL0 Copyright (c) Steve Scherf et al.
# Submitted via: dBpowerAMP V4.0
#
DISCID=640e8317
DTITLE=Big Joe Turner - Every Day in the Week
DYEAR=1900
DGENRE=Blues
TTITLE0=Rocks in My Bed [Take B]
TTITLE1=Rocks in My Bed [Take A]
TTITLE2=Blues on Central Avenue
TTITLE3=Goin' to Chicago Blues
TTITLE4=Sun Risin' Blues
TTITLE5=Blues in the Night [Take A][#]
TTITLE6=Blues in the Night [Take B]
TTITLE7=Cry Baby Blues [Take A]
TTITLE8=Cry Baby Blues [Take B][#]
TTITLE9=It's the Same Old Story
TTITLE10=Rebecca [Take A]
TTITLE11=Rebecca (Breakdown) [#]
TTITLE12=Rebecca [Unlettered Take][#]
TTITLE13=Rebecca [Take B][#]
TTITLE14=Little Bittie Gal's Blues (Breakdown)
TTITLE15=Little Bittie Gal's Blues [Take A]
TTITLE16=I Got a Gal (For Every Day in the Week) [Take B][#]
TTITLE17=I Got a Gal (For Every Day in the Week) [Take A]
TTITLE18=I Stand Accused [#]
TTITLE19=I Walk a Lonely Mile
TTITLE20=I'm Packin' Up
TTITLE21=Shake, Rattle and Roll
TTITLE22=Piney Brown Blues
EXTD=
EXTT0=
EXTT1=
EXTT2=
EXTT3=
EXTT4=
EXTT5=
EXTT6=
EXTT7=
EXTT8=
EXTT9=
EXTT10=
EXTT11=
EXTT12=
EXTT13=
EXTT14=
EXTT15=
EXTT16=
EXTT17=
EXTT18=
EXTT19=
EXTT20=
EXTT21=
EXTT22=
PLAYORDER=
